<svg width="34" height="34" viewBox="0 0 34 34" fill="none" xmlns="http://www.w3.org/2000/svg">
<g clip-path="url(#clip0_1367_7243)">
<path d="M5.01239 29.0947V28.5637L5.01715 27.6152H4V30.9972H5.01239V29.9207H5.73518V29.0947H5.01239Z" fill="#EEEEEE"/>
<path d="M6.59364 27.6143H5.73438V28.5412H6.59364V27.6143Z" fill="#FF5906"/>
<path d="M6.75586 29.3028C6.75586 28.3321 7.50008 27.6143 8.51009 27.6143C9.52009 27.6143 10.2635 28.3274 10.2635 29.3028C10.2635 30.2783 9.5193 30.9914 8.51009 30.9914C7.50087 30.9914 6.75586 30.2735 6.75586 29.3028ZM9.52724 29.3219C9.52724 28.7193 9.09324 28.2844 8.51009 28.2844C7.92693 28.2844 7.49294 28.7185 7.49294 29.3219C7.49294 29.9253 7.92693 30.3594 8.51009 30.3594C9.09324 30.3594 9.52724 29.9253 9.52724 29.3219Z" fill="#EEEEEE"/>
<path d="M12.8901 30.9906L12.1142 29.7075L11.3477 30.9906H10.4258L11.5215 29.2687L10.4258 27.6143H11.408L12.1324 28.8155L12.8473 27.6143H13.7446L12.71 29.2448L13.7478 30.9906H12.8893H12.8901Z" fill="#EEEEEE"/>
<path d="M18.6992 27.6143L18.3159 28.7034H19.3442L19.7306 27.6143H18.6992ZM17.7328 30.3459L16.7331 27.6143H15.6953L16.8894 30.9962H18.5294L19.0879 29.4221H18.0597L17.732 30.3459H17.7328Z" fill="#EEEEEE"/>
<path d="M20.0446 27.6143H20.8229L20.8213 30.9962H20.043L20.0446 27.6143Z" fill="#EEEEEE"/>
<path d="M22.5192 31.0004C21.8336 31.0004 21.3052 30.6402 21.2949 30.0153H22.0042C22.0233 30.2801 22.1978 30.4558 22.5049 30.4558C22.8119 30.4558 23.0015 30.2904 23.0015 30.0535C23.0015 29.3388 21.3005 29.7697 21.3052 28.5716C21.3052 27.9754 21.7876 27.6152 22.4676 27.6152C23.1475 27.6152 23.6061 27.9611 23.649 28.5573H22.9214C22.9071 28.3395 22.7326 28.1694 22.4485 28.1646C22.1891 28.155 21.9947 28.283 21.9947 28.5525C21.9947 29.2156 23.6863 28.8459 23.6863 30.0106C23.6863 30.5313 23.2705 31.0004 22.5192 31.0004Z" fill="#EEEEEE"/>
<path d="M24.6954 28.259H23.8496V27.6143H26.3155V28.259H25.4697V30.997H24.6954V28.259Z" fill="#EEEEEE"/>
<path d="M28.7357 30.2091H27.3258L26.9918 30.9962H26.0762L27.5916 27.6143H28.4778L29.998 30.9962H29.0713L28.7349 30.2091H28.7357ZM28.5476 29.5994L28.0311 28.2407L27.5194 29.5994H28.5476ZM28.7373 30.2131L29.9988 30.9962Z" fill="#EEEEEE"/>
<path d="M26.7254 5.92969V15.073C26.7254 15.5095 26.5588 15.9276 26.2621 16.2361L20.9081 21.8051L17.0117 17.2163L26.7254 5.92969Z" fill="#E5E5E5"/>
<path d="M20.9126 21.8001L16.8709 25.9214L13.0404 21.7874L7.86417 16.2009C7.58172 15.8964 7.42383 15.4893 7.42383 15.0664L7.45001 5.93262L16.9979 17.1875L20.8816 21.7651L20.911 21.8001H20.9126Z" fill="#505050"/>
<path opacity="0.23" d="M17.0117 17.2158L17.7694 16.335L20.9129 21.7998" fill="black"/>
<path d="M16.7227 16.0818L18.5054 10.3267L21.5601 9.25429L22.2638 7.31925L23.5785 4.08915L24.049 3L20.6167 7.995L17.263 9.09449L16.7227 16.0818Z" fill="#FF5906"/>
<path d="M24.0496 3L22.4707 5.9272L21.9883 8.07848L24.0496 3Z" fill="#EAEAEA"/>
</g>
<defs>
<clipPath id="clip0_1367_7243">
<rect width="26" height="28" fill="white" transform="translate(4 3)"/>
</clipPath>
</defs>
</svg>
