<?xml version="1.0" encoding="utf-8"?>
<!-- Generator: Adobe Illustrator 27.1.1, SVG Export Plug-In . SVG Version: 6.00 Build 0)  -->
<svg version="1.1" id="Layer_1" xmlns="http://www.w3.org/2000/svg" xmlns:xlink="http://www.w3.org/1999/xlink" x="0px" y="0px"
	 viewBox="0 0 16 16" style="enable-background:new 0 0 16 16;" xml:space="preserve">
<path style="fill:#0A0A0A;" d="M14,16H2c-1.1,0-2-0.9-2-2V2c0-1.1,0.9-2,2-2h12c1.1,0,2,0.9,2,2v12C16,15.1,15.1,16,14,16z"/>
<g>
	<g>
		<path style="fill:#E5E5E5;" d="M14.43,2.48V8.4c0,0.28-0.11,0.55-0.3,0.75l-3.47,3.6L8.14,9.78L14.43,2.48z"/>
		<path style="fill:#E5E5E5;" d="M10.46,5.32"/>
		<path style="fill:#E5E5E5;" d="M10.67,12.75l-2.62,2.67l-2.48-2.68L2.2,9.13c-0.18-0.2-0.29-0.46-0.29-0.73l0.02-5.91l6.19,7.28
			l2.52,2.96L10.67,12.75z"/>
		<polyline style="opacity:0.23;fill:#969696;" points="8.14,9.78 8.63,9.21 10.67,12.75 		"/>
		<path style="fill:#E5E5E5;" d="M12.56,1.25"/>
		<g>
			<polygon style="fill:#E5E5E5;" points="7.95,9.05 9.1,5.32 11.09,4.63 11.54,3.38 12.39,1.29 12.7,0.58 10.47,3.82 8.3,4.53 			
				"/>
			<polygon style="fill:#E5E5E5;" points="12.7,0.58 11.68,2.48 11.36,3.87 			"/>
		</g>
	</g>
</g>
</svg>
