<svg width="281" height="59" viewBox="0 0 281 59" fill="none" xmlns="http://www.w3.org/2000/svg">
<g clip-path="url(#clip0_1369_7302)">
<path d="M51.9946 7.54102V31.0739C51.9946 32.1985 51.547 33.2727 50.7447 34.0658L36.3199 48.4004L25.8223 36.5878L51.9946 7.54102Z" fill="#E5E5E5"/>
<path d="M36.3364 48.3914L25.4503 58.9997L15.13 48.3579L1.18658 33.9771C0.426493 33.1924 0 32.1475 0 31.0565L0.071786 7.54883L25.7965 36.5201L36.2604 48.3033L36.3406 48.3914H36.3364Z" fill="#505050"/>
<path opacity="0.23" d="M25.8262 36.5922L27.87 34.3262L36.3365 48.3922" fill="black"/>
<path d="M25.0488 33.6711L29.8543 18.8582L38.0801 16.097L39.9761 11.116L43.5189 2.80313L44.7858 0L35.538 12.8575L26.5057 15.6858L25.0488 33.6711Z" fill="#FF5906"/>
<path d="M44.7853 0L40.5752 7.34772L39.2324 13.0715L44.7853 0Z" fill="#EAEAEA"/>
<path d="M77.3778 30.9018V26.609L77.4158 18.9424H69.1309V46.2771H77.382V37.5782H83.2727V30.9018H77.382H77.3778Z" fill="#EEEEEE"/>
<path d="M90.2649 18.9424H83.2637V26.4328H90.2649V18.9424Z" fill="#FF5906"/>
<path d="M91.5918 32.5885C91.5918 24.7414 97.6556 18.9463 105.886 18.9463C114.116 18.9463 120.175 24.7078 120.175 32.5885C120.175 40.4691 114.111 46.2348 105.886 46.2348C97.6598 46.2348 91.5918 40.4355 91.5918 32.5885ZM114.175 32.7437C114.175 27.8718 110.636 24.3595 105.881 24.3595C101.127 24.3595 97.588 27.8718 97.588 32.7437C97.588 37.6156 101.127 41.1279 105.881 41.1279C110.636 41.1279 114.175 37.6198 114.175 32.7437Z" fill="#EEEEEE"/>
<path d="M141.581 46.2309L135.259 35.8619L129.014 46.2309H121.506L130.437 32.3118L121.506 18.9424H129.512L135.415 28.6484L141.239 18.9424H148.552L140.124 32.1188L148.582 46.2309H141.585H141.581Z" fill="#EEEEEE"/>
<path d="M188.904 18.9424L185.78 27.7462H194.158L197.308 18.9424H188.904ZM181.029 41.0191L172.884 18.9424H164.43L174.159 46.2771H187.528L192.08 33.5581H183.702L181.029 41.0233V41.0191Z" fill="#EEEEEE"/>
<path d="M199.87 18.9424H206.208L206.196 46.2771H199.857L199.87 18.9424Z" fill="#EEEEEE"/>
<path d="M220.038 46.3023C214.456 46.3023 210.145 43.3942 210.064 38.3419H215.841C215.993 40.482 217.416 41.9003 219.92 41.9003C222.424 41.9003 223.966 40.5617 223.966 38.6482C223.966 32.8699 210.102 36.3528 210.14 26.672C210.14 21.8504 214.068 18.9424 219.612 18.9424C225.156 18.9424 228.894 21.7371 229.24 26.5587H223.311C223.197 24.7962 221.77 23.4198 219.46 23.3821C217.344 23.3065 215.765 24.3388 215.765 26.5209C215.765 31.8796 229.552 28.8918 229.552 38.3083C229.552 42.5172 226.161 46.3065 220.038 46.3065V46.3023Z" fill="#EEEEEE"/>
<path d="M237.768 24.1542H230.877V18.9424H250.969V24.1542H244.077V46.2813H237.768V24.1542Z" fill="#EEEEEE"/>
<path d="M270.702 39.9155H259.216L256.496 46.2771H249.039L261.39 18.9424H268.616L281.005 46.2771H273.451L270.706 39.9155H270.702ZM269.169 34.989L264.959 24.0115L260.787 34.989H269.169ZM270.714 39.9491L280.997 46.2771Z" fill="#EEEEEE"/>
</g>
<defs>
<clipPath id="clip0_1369_7302">
<rect width="281" height="59" fill="white"/>
</clipPath>
</defs>
</svg>
