<svg width="20" height="20" viewBox="0 0 18 18" fill="none" xmlns="http://www.w3.org/2000/svg">
<path d="M16.7852 3.16016V9.51181C16.7852 9.81501 16.6576 10.1055 16.4303 10.3198L12.3287 14.1884L9.34375 11.0007L16.7852 3.16016Z" fill="#E5E5E5"/>
<path d="M12.3328 14.1849L9.23663 17.0478L6.30211 14.176L2.33734 10.2952C2.12096 10.0837 2 9.80095 2 9.50714L2.02006 3.16211L9.33449 10.9806L12.3097 14.1606L12.3322 14.1849H12.3328Z" fill="#505050"/>
<path opacity="0.23" d="M9.34375 10.9996L9.92421 10.3877L12.3324 14.184" fill="black"/>
<path d="M9.125 10.2126L10.4908 6.21472L12.8315 5.46971L13.37 4.12548L14.3771 1.88161L14.7376 1.125L12.1082 4.59491L9.53892 5.3587L9.125 10.2126Z" fill="#FF5906"/>
<path d="M14.7373 1.125L13.5278 3.15846L13.1582 4.6529L14.7373 1.125Z" fill="#EAEAEA"/>
</svg>
