<svg width="203" height="57" viewBox="0 0 203 57" fill="none" xmlns="http://www.w3.org/2000/svg">
<g id="Frame" clip-path="url(#clip0_515_2819)">
<g id="Layer 12">
<g id="Group">
<path id="Vector" d="M70.6638 27.1767V24.4152H70.688V19.4703H65.1045V37.5297H70.6638V31.5845H74.633V27.1767H70.6638Z" fill="#EEEEEE"/>
<path id="Vector_2" d="M79.3502 19.4703H74.6328V24.4152H79.3502V19.4703Z" fill="#FF5906"/>
<path id="Vector_3" d="M80.8906 28.4994C80.8906 23.6708 84.7041 20.103 89.8765 20.103C95.0488 20.103 98.8623 23.6487 98.8623 28.4994C98.8623 33.35 95.0488 36.8957 89.8765 36.8957C84.7041 36.8957 80.8906 33.3265 80.8906 28.4994ZM95.7396 28.4994C95.7396 25.1641 93.2365 22.7615 89.8765 22.7615C86.5164 22.7615 84.0134 25.1641 84.0134 28.4994C84.0134 31.8346 86.5164 34.2372 89.8765 34.2372C93.2365 34.2372 95.7396 31.8346 95.7396 28.4994Z" fill="#EEEEEE"/>
<path id="Vector_4" d="M113.364 36.2659L109.032 30.3634L104.747 36.2659H101.373L107.3 28.3448L101.692 20.7341H105.043L109.124 26.2586L113.158 20.7341H116.372L110.787 28.233L116.781 36.2645H113.362L113.364 36.2659Z" fill="#EEEEEE"/>
<path id="Vector_5" d="M141.192 19.6101L139.129 25.0934H144.896L147.04 19.6101H141.19H141.192ZM135.837 33.8399L130.524 19.6101H124.712L131.4 37.39H140.088L143.396 28.9304H137.682L135.835 33.8399H135.837Z" fill="#EEEEEE"/>
<path id="Vector_6" d="M149.655 20.7341H152.619V36.2659H149.655V20.7341Z" fill="#EEEEEE"/>
<path id="Vector_7" d="M155.184 34.624L156.21 32.3833C157.487 33.3823 159.516 34.0914 161.476 34.0914C163.961 34.0914 165.01 33.2264 165.01 32.0729C165.01 28.7229 155.527 30.9195 155.527 25.1508C155.527 22.6438 157.578 20.5134 161.955 20.5134C163.87 20.5134 165.876 21.0019 167.267 21.889L166.332 24.1297C164.896 23.3088 163.323 22.9101 161.932 22.9101C159.47 22.9101 158.468 23.8414 158.468 25.0183C158.468 28.3242 167.929 26.1718 167.929 31.8743C167.929 34.3592 165.855 36.4896 161.477 36.4896C158.993 36.4896 156.508 35.7348 155.187 34.6255L155.184 34.624Z" fill="#EEEEEE"/>
<path id="Vector_8" d="M175.779 23.1749H170.491V20.7341H184.031V23.1749H178.742V36.2659H175.778V23.1749H175.779Z" fill="#EEEEEE"/>
<path id="Vector_9" d="M198.304 32.6717H190.326L188.753 36.2659H185.698L192.877 20.7341H195.795L202.998 36.2659H199.898L198.302 32.6717H198.304ZM197.324 30.409L194.315 23.6192L191.33 30.409H197.324Z" fill="#EEEEEE"/>
</g>
</g>
<g id="Layer 13">
<g id="Group_2">
<path id="Vector_10" d="M51.2864 7.28552V30.022C51.2864 31.1063 50.8436 32.1479 50.0561 32.9144L35.8299 46.7617L25.4746 35.3508L51.2864 7.28552Z" fill="#E5E5E5"/>
<path id="Vector_11" d="M35.8406 46.7513L25.1014 56.9999L14.923 46.719L1.1699 32.8276C0.420196 32.0699 0 31.0592 0 30.0058L0.0710403 7.29285L25.443 35.2816L35.7635 46.6645L35.8421 46.7513H35.8406Z" fill="#505050"/>
<path id="Vector_12" opacity="0.23" d="M25.4731 35.3523L27.488 33.1631L35.8405 46.7514" fill="black"/>
<g id="Group_3">
<path id="Vector_13" d="M24.707 32.5319L29.4456 18.2198L37.5623 15.5524L39.432 10.74L42.9236 2.70707L44.1766 0L35.0547 12.4216L26.143 15.1552L24.707 32.5319Z" fill="#FF5906"/>
<path id="Vector_14" d="M44.1764 0L40.0228 7.10017L38.6987 12.6291L44.1764 0Z" fill="#EAEAEA"/>
</g>
</g>
</g>
</g>
<defs>
<clipPath id="clip0_515_2819">
<rect width="203" height="57" fill="white"/>
</clipPath>
</defs>
</svg>
